<?xml version="1.0" encoding="UTF-8"?>
<svg version="1.1" xmlns="http://www.w3.org/2000/svg" width="512" height="512" style="border-radius: 25%;">
<path d="M0 0 C168.96 0 337.92 0 512 0 C512 168.96 512 337.92 512 512 C343.04 512 174.08 512 0 512 C0 343.04 0 174.08 0 0 Z " fill="#FEDCA9" transform="translate(0,0)"/>
<path d="M0 0 C11.73205279 9.84157983 19.91560387 24.56037199 21.57568359 39.86181641 C22.60510025 53.59602238 23.70788876 68.44994473 17.75 81.1875 C17.34910156 82.10789062 16.94820312 83.02828125 16.53515625 83.9765625 C9.06893266 99.34183423 -4.50547938 110.16387074 -20.25 116.1875 C-24.55594541 117.62281514 -28.88467364 118.94522111 -33.25 120.1875 C-33.48265476 122.37879712 -33.48265476 122.37879712 -31.44921875 124.03515625 C-30.62035156 124.76605469 -29.79148437 125.49695313 -28.9375 126.25 C-28.01710938 127.06339844 -27.09671875 127.87679687 -26.1484375 128.71484375 C-23.49661584 130.97711209 -20.79556821 133.14984693 -18.0625 135.3125 C5.74750383 154.67077507 24.28692499 179.63744043 29.0625 210.5 C30.82742241 227.85792621 31.44170143 245.52886168 25.75 262.1875 C25.47285156 263.1259375 25.19570313 264.064375 24.91015625 265.03125 C20.89404183 277.61630902 13.43430072 289.34202159 4.75 299.1875 C3.64591797 300.50621094 3.64591797 300.50621094 2.51953125 301.8515625 C-14.79534312 321.90631095 -38.9475717 334.4034397 -63.8125 342.5 C-65.30015869 342.98835327 -65.30015869 342.98835327 -66.81787109 343.48657227 C-80.58910148 347.80003288 -93.81885256 349.75795868 -108.25 349.625 C-108.95800751 349.62195862 -109.66601501 349.61891724 -110.39547729 349.61578369 C-141.00576137 349.42299404 -167.39769428 342.62592206 -190.25 321.1875 C-200.57603046 310.62801146 -206.71671489 296.3578329 -210.25 282.1875 C-210.58644531 280.96160156 -210.58644531 280.96160156 -210.9296875 279.7109375 C-217.13708063 252.925611 -209.60890811 224.79699507 -195.41894531 201.97705078 C-192.41062184 197.37157647 -188.9575015 193.23944843 -185.25 189.1875 C-184.0434375 187.85912109 -184.0434375 187.85912109 -182.8125 186.50390625 C-174.23457162 177.48367844 -164.05775844 170.28686142 -151.25 169.8125 C-145.02451768 170.0355313 -139.64188901 171.3206598 -134.6875 175.1875 C-129.0020146 187.05286083 -135.89502723 205.89333018 -139.53588867 217.85961914 C-144.59660951 234.85128929 -144.63339485 255.72252649 -137 271.82421875 C-133.48644845 277.86313548 -128.59118805 281.37366061 -122.25 284.1875 C-106.5483091 287.89806181 -87.5762803 286.43069224 -73.3515625 278.58984375 C-70.98133032 277.07095029 -70.98133032 277.07095029 -69.01171875 275.51953125 C-67.25 274.1875 -67.25 274.1875 -65.14453125 273.26171875 C-62.73519625 271.89560096 -62.33388973 270.70448242 -61.25 268.1875 C-59.78030085 265.81714957 -58.28846983 263.46244901 -56.78515625 261.11328125 C-52.3958729 252.74795496 -51.75529009 245.19492507 -51.8125 235.8125 C-51.79251953 234.6575 -51.77253906 233.5025 -51.75195312 232.3125 C-51.76595722 207.49725192 -70.47836185 189.2082653 -86.75 172.5 C-89.73273848 169.54342589 -92.81991254 166.90063772 -96.125 164.3125 C-117.81324979 146.8762484 -135.66555861 125.90134217 -144.25 99.1875 C-144.52287842 98.35927734 -144.79575684 97.53105469 -145.0769043 96.67773438 C-147.22050404 89.63257602 -147.68648286 83.15003104 -147.5625 75.8125 C-147.54558105 74.16169434 -147.54558105 74.16169434 -147.52832031 72.47753906 C-147.15698748 50.47769746 -141.24494358 29.83851165 -126.25 13.1875 C-125.73179687 12.58808594 -125.21359375 11.98867187 -124.6796875 11.37109375 C-112.89042225 -1.3956734 -95.16272767 -11.06351203 -78.25 -14.8125 C-77.4146875 -15.01488281 -76.579375 -15.21726562 -75.71875 -15.42578125 C-50.09700057 -20.71566491 -20.95631875 -15.92300352 0 0 Z " fill="#DB8C61" transform="translate(347.25,89.8125)"/>
<path d="M0 0 C3.73222172 3.3420349 5.55648574 6.37457783 6.25 11.3515625 C6.26714129 12.74732945 6.25552519 14.14367482 6.21875 15.5390625 C6.20593994 16.28454346 6.19312988 17.03002441 6.17993164 17.7980957 C5.44365665 38.30674055 -5.88414278 56.57745496 -20.28125 70.5390625 C-24.8833983 68.45612341 -27.88676915 65.2769276 -31.40625 61.7265625 C-32.40603882 60.71831421 -32.40603882 60.71831421 -33.42602539 59.68969727 C-46.57044014 46.22488046 -59.7454679 29.03395578 -62.68359375 9.921875 C-61.80345415 4.70939775 -56.29216377 1.53882153 -52.28125 -1.4609375 C-49.36779037 -3.19352645 -46.50251726 -4.4197779 -43.28125 -5.4609375 C-42.62125 -5.68394531 -41.96125 -5.90695313 -41.28125 -6.13671875 C-27.02556508 -10.10563103 -12.49431159 -7.6171461 0 0 Z " fill="#FEDCA9" transform="translate(318.28125,127.4609375)"/>รฐ
</svg>
